<?xml version="1.0" encoding="UTF-8"?>
<svg xmlns="http://www.w3.org/2000/svg" width="600" height="600" version="1.1" viewBox="0 0 600 600">
  <!-- Generator: Adobe Illustrator 29.3.0, SVG Export Plug-In . SVG Version: 2.1.0 Build 146)  -->
  <defs>
    <style>
      .st0 {
        fill: #031c86;
        stroke-miterlimit: 10;
      }

      .st0, .st1 {
        stroke: #000;
      }

      .st2 {
        fill: #fff;
      }

      .st1 {
        stroke-linejoin: round;
        stroke-width: 16px;
      }

      .st3 {
        display: none;
      }
    </style>
  </defs>
  <g id="Layer_1">
    <circle class="st0" cx="300" cy="300" r="300"/>
    <g>
      <path class="st2" d="M369.8,404.2h-23.4c-3.5,0-6.2,2.8-6.2,6.2h0v10.9h-146.7v-170.2h64c3.5,0,6.2-2.8,6.2-6.2v-64h76.5v44.6h0c.2,3.3,2.9,5.9,6.2,5.9h23.4c3.3,0,6-2.6,6.2-5.9h0v-.3h0v-59.4h0v-14.5c0-3.5-2.8-6.2-6.2-6.2h-118.7l-93.7,93.7v212.4c0,3.5,2.8,6.2,6.2,6.2h206.1c3.5,0,6.2-2.8,6.2-6.2v-8.8h0v-31.7h0c0-3.4-2.8-6.2-6.2-6.2Z"/>
      <path class="st2" d="M457.3,261.6l-42-42c-2.4-2.4-6.4-2.4-8.8,0l-114.8,114.8.2.2h-.4c0-.1-15.7,58.5-15.7,58.5h0c-.7,2.2-.2,4.7,1.5,6.4,1.9,1.9,4.7,2.3,7,1.2h0s58.1-15.5,58.1-15.5h0c0-.1,0,0,0,0l114.8-114.8c2.4-2.4,2.4-6.4,0-8.8ZM294.9,381.8l9.3-34.8,25.5,25.5-34.8,9.3Z"/>
    </g>
  </g>
  <g id="Layer_2" class="st3">
    <g id="Layer_1-2">
      <polygon class="st1" points="156 149.3 506.6 149.3 476.7 491 126.1 491 156 149.3"/>
      <g>
        <polygon class="st2" points="123.3 108.2 474.7 108.2 444 459.7 92.5 459.7 123.3 108.2"/>
        <path d="M444,467.7H92.5c-2.2,0-4.4-.9-5.9-2.6s-2.3-3.9-2.1-6.1l30.8-351.5c.4-4.1,3.8-7.3,8-7.3h351.4c2.2,0,4.4.9,5.9,2.6s2.3,3.9,2.1,6.1l-30.7,351.5c-.4,4.1-3.9,7.3-8,7.3h0ZM101.2,451.7h335.4l29.4-335.5H130.6s-29.4,335.5-29.4,335.5Z"/>
      </g>
    </g>
    <polygon class="st1" points="165.3 156.2 427.8 156.2 421.2 224.2 159 224.2 165.3 156.2"/>
    <polygon class="st1" points="154.4 262.7 231.3 262.7 216.5 418 140 418 154.4 262.7"/>
    <polygon class="st1" points="266.4 262.7 417.1 262.7 402 418 251 418 266.4 262.7"/>
  </g>
</svg>